<svg width="140" height="32" viewBox="0 0 140 32" fill="none" xmlns="http://www.w3.org/2000/svg">
    <path d="M44.3071 14.8959C44.3071 11.9914 44.3071 9.08519 44.3071 6.18071C44.3071 5.53121 44.429 5.40584 45.0645 5.40409C47.2533 5.40409 49.4421 5.40235 51.631 5.40409C53.1581 5.40584 54.5999 5.72449 55.8571 6.63345C57.5775 7.87499 58.2966 9.62499 58.2949 11.6919C58.2931 13.3531 57.863 14.8819 56.712 16.1392C55.6986 17.2449 54.4066 17.8404 52.9387 17.9919C51.9235 18.0964 50.8944 18.0633 49.8705 18.0842C49.3638 18.0946 48.8553 18.0999 48.3486 18.0807C48.0961 18.072 48.0317 18.1573 48.0334 18.4011C48.0421 20.1424 48.0387 21.8837 48.0387 23.625C48.0387 24.2849 47.9168 24.4068 47.2551 24.4068C46.4994 24.4068 45.7419 24.4086 44.9862 24.4068C44.4655 24.4051 44.3088 24.2501 44.3088 23.7312C44.3053 20.7867 44.3071 17.8404 44.3071 14.8959ZM48.0578 14.7183C48.4096 14.7183 48.7456 14.7218 49.08 14.7183C50.0533 14.7043 51.0354 14.7566 52.0001 14.6573C53.5829 14.4936 54.6277 13.2329 54.6033 11.6501C54.579 10.0986 53.5429 8.92847 51.9461 8.81181C50.6802 8.71952 49.4038 8.77698 48.1309 8.76827C48.1135 8.76827 48.0961 8.78395 48.0596 8.8031C48.0578 10.7551 48.0578 12.7175 48.0578 14.7183Z" fill="#1C2E7F"/>
    <path d="M92.9649 13.1528C93.0415 12.8289 93.1181 12.5033 93.1947 12.1794C93.294 11.7528 93.4438 11.6256 93.8739 11.6239C94.3806 11.6204 94.889 11.6187 95.3957 11.6239C95.8224 11.6291 95.9739 11.7737 95.9773 12.2003C95.986 12.9368 95.9808 13.6734 95.9808 14.41C95.9808 19.007 95.9808 23.604 95.9808 28.201C95.9808 28.3299 95.9826 28.4605 95.9791 28.5893C95.9704 29.0873 95.852 29.2145 95.3627 29.2197C94.6261 29.2266 93.8895 29.2249 93.153 29.2197C92.648 29.2162 92.5226 29.0873 92.5226 28.5719C92.5191 26.9699 92.5209 25.3679 92.5209 23.7659C92.5209 23.651 92.5209 23.5361 92.5209 23.3724C92.4303 23.4299 92.385 23.449 92.3537 23.4804C90.3791 25.3941 87.243 25.0911 85.3711 23.6684C84.0112 22.6341 83.252 21.2341 82.9559 19.5799C82.639 17.8003 82.7975 16.0677 83.6472 14.4413C85.0246 11.7998 88.2477 10.5826 90.938 11.6761C91.6624 11.9704 92.2666 12.4319 92.7734 13.0204C92.8169 13.0727 92.8413 13.1406 92.8761 13.2015C92.9057 13.1841 92.9353 13.1684 92.9649 13.1528ZM89.4928 14.5475C88.0336 14.5458 86.9348 15.3381 86.4838 16.7224C86.2313 17.499 86.2017 18.2878 86.4072 19.0766C86.7293 20.306 87.4572 21.1801 88.7353 21.457C90.0326 21.7373 91.1487 21.3769 91.9654 20.299C92.6341 19.4162 92.7681 18.3941 92.6132 17.3197C92.3763 15.6898 91.0948 14.5493 89.4928 14.5475Z" fill="#1C2E7F"/>
    <path d="M134.252 13.113C134.355 12.7456 134.437 12.4495 134.519 12.1535C134.63 11.7513 134.785 11.6259 135.196 11.6224C135.713 11.6189 136.23 11.6172 136.747 11.6224C137.198 11.6277 137.383 11.8105 137.383 12.2597C137.385 16.101 137.385 19.9423 137.383 23.7836C137.383 24.2538 137.228 24.4053 136.753 24.407C136.206 24.4105 135.657 24.4105 135.111 24.407C134.719 24.4035 134.578 24.2921 134.477 23.9107C134.402 23.6234 134.336 23.3344 134.257 23.014C134.191 23.0627 134.141 23.0888 134.106 23.1289C132.826 24.5637 131.21 25.0304 129.356 24.7413C127.461 24.4453 126.005 23.4458 125.133 21.7533C123.832 19.2301 123.822 16.6461 125.218 14.156C126.603 11.6886 129.753 10.6316 132.311 11.6712C132.957 11.9341 133.51 12.3311 133.988 12.8378C134.062 12.9145 134.136 12.9911 134.252 13.113ZM134.071 17.858C134.043 17.6804 134.014 17.3217 133.932 16.9769C133.618 15.657 132.553 14.6941 131.285 14.5635C129.826 14.412 128.602 15.0545 128.039 16.3309C127.519 17.5132 127.526 18.7165 128.109 19.8779C128.967 21.5878 131.245 22.0928 132.756 20.9192C133.692 20.1931 134.05 19.1918 134.071 17.858Z" fill="#1C2E7F"/>
    <path d="M108.536 13.1144C108.634 12.7574 108.716 12.4509 108.803 12.1462C108.918 11.7457 109.073 11.6256 109.485 11.6221C110.003 11.6186 110.52 11.6169 111.037 11.6221C111.477 11.6273 111.66 11.8049 111.66 12.2368C111.662 16.0955 111.662 19.9559 111.66 23.8146C111.66 24.2534 111.504 24.4032 111.063 24.4049C110.506 24.4084 109.949 24.4084 109.391 24.4049C109.005 24.4014 108.859 24.2848 108.759 23.9069C108.686 23.6283 108.62 23.348 108.55 23.0676C108.547 23.0519 108.528 23.0398 108.507 23.0136C108.477 23.038 108.444 23.0589 108.42 23.0885C107.138 24.5547 105.508 25.0335 103.629 24.7375C101.124 24.3422 99.2136 22.4442 98.6929 19.8602C98.3185 18.0039 98.43 16.1947 99.3041 14.483C100.669 11.8136 103.899 10.5756 106.595 11.6691C107.241 11.932 107.795 12.3291 108.272 12.8358C108.347 12.9141 108.422 12.9925 108.536 13.1144ZM101.954 18.192C101.987 18.4079 102.01 18.7788 102.106 19.1306C102.438 20.346 103.177 21.1992 104.443 21.4621C105.717 21.7268 106.823 21.3786 107.626 20.3233C108.373 19.3412 108.521 18.2059 108.23 17.0323C107.565 14.3542 104.85 14.0529 103.374 15.0646C102.336 15.7786 101.994 16.839 101.954 18.192Z" fill="#1C2E7F"/>
    <path d="M62.1213 19.1446C62.3041 19.8916 62.6454 20.4941 63.1922 20.9712C64.0837 21.7495 65.1407 21.9028 66.2708 21.7478C66.8907 21.6625 67.4601 21.4431 67.9807 21.0896C68.3499 20.8388 68.5449 20.8824 68.8009 21.2567C69.1039 21.7008 69.4016 22.1465 69.6959 22.5958C69.931 22.9545 69.9083 23.1199 69.5566 23.3724C67.2947 24.997 64.8499 25.3227 62.3546 24.0898C59.8646 22.8605 58.778 20.6717 58.7832 17.9465C58.7867 15.9406 59.4623 14.1749 60.9772 12.808C62.4556 11.4759 64.2213 11.0911 66.1471 11.415C68.9559 11.8886 70.7424 13.8005 71.0541 16.6388C71.1133 17.1804 71.1185 17.7306 71.1116 18.2756C71.1029 18.9373 70.8748 19.1428 70.2131 19.1428C67.6464 19.1446 65.0797 19.1446 62.5131 19.1446C62.3964 19.1446 62.2797 19.1446 62.1213 19.1446ZM62.17 16.6266C64.0611 16.6266 65.933 16.6266 67.8275 16.6266C67.6325 15.6602 67.2337 14.854 66.2795 14.5284C65.8041 14.3664 65.2626 14.316 64.7576 14.3403C63.476 14.4048 62.3912 15.3903 62.17 16.6266Z" fill="#1C2E7F"/>
    <path d="M76.7278 13.2607C76.8027 13.1684 76.848 13.1179 76.8863 13.0639C78.1087 11.3557 79.8012 10.8751 81.7323 11.697C82.0057 11.8137 82.2634 11.9669 82.5211 12.1184C82.7649 12.2612 82.8363 12.491 82.7092 12.7348C82.3609 13.4052 82.0022 14.0704 81.6243 14.7234C81.4537 15.0177 81.2378 15.0246 80.8477 14.8192C79.5139 14.1174 78.0669 14.6119 77.4679 15.9928C77.339 16.2905 77.2502 16.6127 77.1962 16.9331C77.1353 17.2935 77.1126 17.6644 77.1109 18.0318C77.1022 19.9124 77.1074 21.793 77.1074 23.6736C77.1074 24.2883 76.989 24.405 76.3743 24.4067C75.7074 24.4067 75.0405 24.4067 74.3753 24.4067C73.7641 24.4067 73.6492 24.2918 73.6492 23.6684C73.6475 22.4443 73.6492 21.2201 73.6492 19.9978C73.6492 17.4607 73.6492 14.9236 73.6492 12.3866C73.6492 11.7301 73.7589 11.6221 74.4102 11.6221C74.8977 11.6221 75.3853 11.6187 75.8728 11.6239C76.2855 11.6291 76.4196 11.7406 76.5067 12.1445C76.5798 12.4998 76.6477 12.8585 76.7278 13.2607Z" fill="#1C2E7F"/>
    <path d="M118.124 13.2697C118.209 13.1618 118.255 13.1095 118.293 13.0556C119.51 11.3404 121.262 10.8633 123.196 11.7252C123.431 11.8297 123.66 11.9568 123.879 12.0909C124.164 12.2668 124.245 12.4809 124.093 12.7735C123.755 13.4265 123.402 14.0725 123.034 14.7098C122.864 15.0058 122.641 15.0267 122.289 14.8421C121.507 14.4294 120.71 14.3737 119.919 14.7951C119.202 15.1765 118.834 15.8381 118.664 16.5991C118.566 17.0309 118.524 17.4837 118.521 17.9294C118.505 19.8501 118.514 21.769 118.514 23.6896C118.514 24.2712 118.376 24.4071 117.791 24.4088C117.084 24.4088 116.379 24.4105 115.672 24.4088C115.206 24.4071 115.054 24.2625 115.054 23.8081C115.052 19.9476 115.052 16.0872 115.054 12.2267C115.054 11.7809 115.204 11.6294 115.639 11.6242C116.186 11.619 116.734 11.619 117.281 11.6242C117.685 11.6294 117.833 11.7566 117.913 12.1536C117.981 12.5018 118.044 12.8536 118.124 13.2697Z" fill="#1C2E7F"/>
    <path d="M18.325 5.8585C19.1549 5.8585 19.8277 5.1857 19.8277 4.35576C19.8277 3.52583 19.1549 2.85303 18.325 2.85303C17.4951 2.85303 16.8223 3.52583 16.8223 4.35576C16.8223 5.1857 17.4951 5.8585 18.325 5.8585Z" fill="#0A50A3"/>
    <path d="M18.325 25.7286C19.1549 25.7286 19.8277 25.0558 19.8277 24.2259C19.8277 23.3959 19.1549 22.7231 18.325 22.7231C17.4951 22.7231 16.8223 23.3959 16.8223 24.2259C16.8223 25.0558 17.4951 25.7286 18.325 25.7286Z" fill="#0A50A3"/>
    <path d="M24.2439 9.58154H12.8906V13.1721H24.2439V9.58154Z" fill="#52BEE7"/>
    <path d="M24.2439 15.2578H12.8906V18.8484H24.2439V15.2578Z" fill="#1C2E7F"/>
    <path d="M8.13645 15.2073C8.15038 15.1655 8.16432 15.1237 8.17651 15.0819C8.19392 15.0245 8.20784 14.9652 8.22177 14.906C8.22699 14.8834 8.23222 14.859 8.23745 14.8364C8.25312 14.7598 8.26357 14.6814 8.27227 14.6031C8.27402 14.5856 8.27575 14.5682 8.27749 14.5508C8.28446 14.4655 8.28969 14.3802 8.29143 14.2931C8.29143 14.206 8.2862 14.119 8.27749 14.0354C8.27575 14.018 8.27402 14.0006 8.27227 13.9832C8.26357 13.9048 8.25138 13.8264 8.2357 13.7498C8.23048 13.7272 8.22526 13.7045 8.22004 13.6802C8.20611 13.6192 8.19043 13.56 8.17302 13.5008C8.16083 13.4608 8.14864 13.4207 8.13471 13.3807C8.12078 13.3406 8.10685 13.3023 8.09117 13.264C7.67675 12.207 6.65113 11.4565 5.44963 11.4565C3.88421 11.4565 2.61133 12.7294 2.61133 14.2948C2.61133 15.8603 3.88421 17.1332 5.44963 17.1332C6.65113 17.1332 7.67849 16.3809 8.09292 15.3239C8.11033 15.2822 8.12426 15.2456 8.13645 15.2073Z" fill="#52BEE7"/>
    <path d="M12.8911 5.8585H18.3256C17.4968 5.8585 16.8229 5.18636 16.8229 4.35576C16.8229 3.52691 17.495 2.85303 18.3256 2.85303H12.8911C9.71493 2.85303 7.13086 5.43711 7.13086 8.61323V10.4625C8.60399 11.1102 9.63484 12.5816 9.63484 14.2898C9.63484 15.9981 8.60399 17.4695 7.13086 18.1172V19.9665C7.13086 23.1426 9.71493 25.7267 12.8911 25.7267H18.3256C17.4968 25.7267 16.8229 25.0545 16.8229 24.2239C16.8229 23.3951 17.495 22.7212 18.3256 22.7212H12.8911C11.3709 22.7212 10.1363 21.4849 10.1363 19.9665V8.61323C10.1363 7.09308 11.3709 5.8585 12.8911 5.8585Z" fill="#52BEE7"/>
    <path d="M31.6938 11.4517C30.4923 11.4517 29.4649 12.2039 29.0505 13.2626C29.0348 13.3009 29.0209 13.341 29.007 13.381C28.9948 13.4176 28.9826 13.4524 28.9721 13.489C28.953 13.5534 28.9373 13.6178 28.9216 13.684C28.9164 13.7032 28.9129 13.7241 28.9094 13.7432C28.8938 13.8233 28.8816 13.9034 28.8729 13.9852C28.8711 13.9974 28.8711 14.0096 28.8694 14.0236C28.8607 14.1124 28.8555 14.2012 28.8555 14.29C28.8555 14.3805 28.8607 14.4693 28.8694 14.5564C28.8711 14.5686 28.8711 14.5825 28.8729 14.5947C28.8816 14.6765 28.8938 14.7566 28.9094 14.8367C28.9129 14.8576 28.9182 14.8768 28.9234 14.8977C28.9373 14.9621 28.9547 15.0265 28.9739 15.091C28.9843 15.1293 28.9983 15.1658 29.0104 15.2024C29.0244 15.2407 29.0383 15.279 29.0522 15.3173C29.4649 16.376 30.4923 17.1283 31.6955 17.1283C33.2609 17.1283 34.5338 15.8554 34.5338 14.29C34.5321 12.7245 33.2592 11.4517 31.6938 11.4517Z" fill="#1C2E7F"/>
    <path d="M27.5132 14.2898C27.5132 12.5851 28.5389 11.119 30.005 10.4677V8.61323C30.005 5.43711 27.4209 2.85303 24.2448 2.85303H18.3262C19.155 2.85303 19.8289 3.52517 19.8289 4.35576C19.8289 5.18462 19.1568 5.8585 18.3262 5.8585H24.2448C25.765 5.8585 26.9996 7.09482 26.9996 8.61323V19.9682C26.9996 21.4884 25.7632 22.7229 24.2448 22.7229H18.3262C19.155 22.7229 19.8289 23.3951 19.8289 24.2257C19.8289 25.0545 19.1568 25.7284 18.3262 25.7284H24.2448C27.4209 25.7284 30.005 23.1443 30.005 19.9682V18.112C28.5389 17.4607 27.5132 15.9946 27.5132 14.2898Z" fill="#1C2E7F"/>
</svg>
