<svg width="41" height="40" viewBox="0 0 41 40" fill="none" xmlns="http://www.w3.org/2000/svg">
<path d="M20.7137 11.568C21.5436 11.568 22.2164 10.8952 22.2164 10.0652C22.2164 9.2353 21.5436 8.5625 20.7137 8.5625C19.8837 8.5625 19.2109 9.2353 19.2109 10.0652C19.2109 10.8952 19.8837 11.568 20.7137 11.568Z" fill="#0A50A3"/>
<path d="M20.7137 31.4371C21.5436 31.4371 22.2164 30.7643 22.2164 29.9344C22.2164 29.1044 21.5436 28.4316 20.7137 28.4316C19.8837 28.4316 19.2109 29.1044 19.2109 29.9344C19.2109 30.7643 19.8837 31.4371 20.7137 31.4371Z" fill="#0A50A3"/>
<path d="M26.6306 15.291H15.2773V18.8816H26.6306V15.291Z" fill="#52BEE7"/>
<path d="M26.6306 20.9668H15.2773V24.5574H26.6306V20.9668Z" fill="white"/>
<path d="M10.5251 20.9168C10.5391 20.875 10.553 20.8332 10.5652 20.7914C10.5826 20.7339 10.5965 20.6747 10.6104 20.6155C10.6157 20.5929 10.6209 20.5685 10.6261 20.5459C10.6418 20.4692 10.6522 20.3909 10.6609 20.3125C10.6627 20.2951 10.6644 20.2777 10.6662 20.2603C10.6731 20.175 10.6784 20.0896 10.6801 20.0026C10.6801 19.9155 10.6749 19.8285 10.6662 19.7449C10.6644 19.7275 10.6627 19.71 10.6609 19.6926C10.6522 19.6143 10.64 19.5359 10.6244 19.4593C10.6192 19.4367 10.6139 19.414 10.6087 19.3896C10.5948 19.3287 10.5791 19.2695 10.5617 19.2103C10.5495 19.1702 10.5373 19.1302 10.5234 19.0901C10.5094 19.0501 10.4955 19.0118 10.4798 18.9735C10.0654 17.9165 9.0398 17.166 7.83831 17.166C6.27288 17.166 5 18.4389 5 20.0043C5 21.5697 6.27288 22.8426 7.83831 22.8426C9.0398 22.8426 10.0672 22.0904 10.4816 21.0334C10.499 20.9916 10.5129 20.9551 10.5251 20.9168Z" fill="#52BEE7"/>
<path d="M15.2797 11.568H20.7143C19.8854 11.568 19.2116 10.8958 19.2116 10.0652C19.2116 9.23638 19.8837 8.5625 20.7143 8.5625H15.2797C12.1036 8.5625 9.51953 11.1466 9.51953 14.3227V16.172C10.9927 16.8197 12.0235 18.2911 12.0235 19.9993C12.0235 21.7075 10.9927 23.1789 9.51953 23.8267V25.6759C9.51953 28.8521 12.1036 31.4361 15.2797 31.4361H20.7143C19.8854 31.4361 19.2116 30.764 19.2116 29.9334C19.2116 29.1045 19.8837 28.4307 20.7143 28.4307H15.2797C13.7596 28.4307 12.525 27.1943 12.525 25.6759V14.3227C12.525 12.8026 13.7596 11.568 15.2797 11.568Z" fill="#52BEE7"/>
<path d="M34.0844 17.1602C32.8829 17.1602 31.8555 17.9124 31.4411 18.9711C31.4254 19.0094 31.4115 19.0495 31.3976 19.0895C31.3854 19.1261 31.3732 19.1609 31.3628 19.1975C31.3436 19.2619 31.3279 19.3263 31.3123 19.3925C31.307 19.4116 31.3036 19.4326 31.3001 19.4517C31.2844 19.5318 31.2722 19.6119 31.2635 19.6937C31.2618 19.7059 31.2618 19.7181 31.26 19.7321C31.2513 19.8209 31.2461 19.9097 31.2461 19.9985C31.2461 20.089 31.2513 20.1778 31.26 20.2649C31.2618 20.2771 31.2618 20.291 31.2635 20.3032C31.2722 20.385 31.2844 20.4651 31.3001 20.5452C31.3036 20.5661 31.3088 20.5853 31.314 20.6062C31.3279 20.6706 31.3453 20.735 31.3645 20.7995C31.3749 20.8378 31.3889 20.8743 31.4011 20.9109C31.415 20.9492 31.4289 20.9875 31.4429 21.0258C31.8555 22.0845 32.8829 22.8368 34.0861 22.8368C35.6516 22.8368 36.9245 21.5639 36.9245 19.9985C36.9227 18.433 35.6498 17.1602 34.0844 17.1602Z" fill="white"/>
<path d="M29.9019 19.9993C29.9019 18.2946 30.9275 16.8284 32.3937 16.1772V14.3227C32.3937 11.1466 29.8096 8.5625 26.6335 8.5625H20.7148C21.5437 8.5625 22.2176 9.23464 22.2176 10.0652C22.2176 10.8941 21.5454 11.568 20.7148 11.568H26.6335C28.1536 11.568 29.3882 12.8043 29.3882 14.3227V25.6777C29.3882 27.1978 28.1519 28.4324 26.6335 28.4324H20.7148C21.5437 28.4324 22.2176 29.1045 22.2176 29.9351C22.2176 30.764 21.5454 31.4379 20.7148 31.4379H26.6335C29.8096 31.4379 32.3937 28.8538 32.3937 25.6777V23.8215C30.9275 23.1702 29.9019 21.704 29.9019 19.9993Z" fill="white"/>
</svg>
